<svg width="101" height="100" viewBox="0 0 101 100" fill="none" xmlns="http://www.w3.org/2000/svg">
<path d="M67.9063 86.7188C62.4688 89.3044 56.5211 90.6391 50.5001 90.625C28.1001 90.625 9.87509 72.4 9.87509 50C9.87509 40.3906 13.1782 31.3156 19.2501 24.0375V31.25H25.5001V12.5H6.75009V18.75H15.6313C7.88314 27.3116 3.60267 38.4529 3.62509 50C3.62509 75.8469 24.6532 96.875 50.5001 96.875C57.4509 96.8895 64.3167 95.3476 70.5939 92.3625L67.9063 86.7188Z" fill="#0A0814"/>
<path d="M66.125 28.125C56.25 28.125 48.1531 35.8031 47.4438 45.5C44.0083 42.3652 39.5258 40.6266 34.875 40.625H22.375V53.125C22.375 63.4656 30.7875 71.875 41.125 71.875H47.375V84.375H53.625V59.375H59.875C70.2125 59.375 78.625 50.9656 78.625 40.625V28.125H66.125ZM41.125 65.625C34.2312 65.625 28.625 60.0188 28.625 53.125V46.875H34.875C41.7688 46.875 47.375 52.4812 47.375 59.375V61.2063L40.2094 54.0406L35.7906 58.4594L42.9563 65.625H41.125ZM72.375 40.625C72.375 47.5188 66.7688 53.125 59.875 53.125H58.0437L65.2094 45.9594L60.7906 41.5406L53.625 48.7063V46.875C53.625 39.9812 59.2312 34.375 66.125 34.375H72.375V40.625Z" fill="#0A0814"/>
<path d="M97.375 50C97.375 24.1531 76.3469 3.12498 50.5 3.12498C43.5492 3.11051 36.6834 4.65238 30.4062 7.63748L33.0938 13.2812C38.5313 10.6956 44.479 9.36084 50.5 9.37498C72.9 9.37498 91.125 27.6 91.125 50C91.125 59.6094 87.8219 68.6844 81.75 75.9625V68.75H75.5V87.5H94.25V81.25H85.3688C93.117 72.6883 97.3974 61.5471 97.375 50Z" fill="#0A0814"/>
</svg>
