<svg width="100" height="100" viewBox="0 0 100 100" fill="none" xmlns="http://www.w3.org/2000/svg">
<rect width="100" height="100" rx="50" fill="#84C318" fill-opacity="0.8"/>
<path d="M30.9219 34.4216H70.6719C70.948 34.4216 71.1719 34.6454 71.1719 34.9216V64.2549C71.1719 64.531 70.948 64.7549 70.6719 64.7549H56.4773C55.934 64.7549 55.3981 64.8814 54.9121 65.1244L41.5621 71.7994C41.2297 71.9656 40.8385 71.7239 40.8385 71.3522V68.2549C40.8385 66.3219 39.2715 64.7549 37.3385 64.7549H30.9219C30.6457 64.7549 30.4219 64.531 30.4219 64.2549V34.9216C30.4219 34.6454 30.6457 34.4216 30.9219 34.4216ZM61.2135 50.1716C61.4667 50.1716 61.6719 50.3768 61.6719 50.6299C61.6719 50.883 61.4667 51.0882 61.2135 51.0882C60.9604 51.0882 60.7552 50.883 60.7552 50.6299C60.7552 50.3768 60.9604 50.1716 61.2135 50.1716ZM58.6719 50.6299C58.6719 52.0336 59.8098 53.1716 61.2135 53.1716C62.6173 53.1716 63.7552 52.0336 63.7552 50.6299C63.7552 49.2262 62.6173 48.0882 61.2135 48.0882C59.8098 48.0882 58.6719 49.2262 58.6719 50.6299ZM50.7969 50.1716C51.05 50.1716 51.2552 50.3768 51.2552 50.6299C51.2552 50.883 51.05 51.0882 50.7969 51.0882C50.5437 51.0882 50.3385 50.883 50.3385 50.6299C50.3385 50.3768 50.5437 50.1716 50.7969 50.1716ZM48.2552 50.6299C48.2552 52.0336 49.3932 53.1716 50.7969 53.1716C52.2006 53.1716 53.3385 52.0336 53.3385 50.6299C53.3385 49.2262 52.2006 48.0882 50.7969 48.0882C49.3932 48.0882 48.2552 49.2262 48.2552 50.6299ZM40.3802 50.1716C40.6333 50.1716 40.8385 50.3768 40.8385 50.6299C40.8385 50.883 40.6333 51.0882 40.3802 51.0882C40.1271 51.0882 39.9219 50.883 39.9219 50.6299C39.9219 50.3768 40.1271 50.1716 40.3802 50.1716ZM37.8385 50.6299C37.8385 52.0336 38.9765 53.1716 40.3802 53.1716C41.7839 53.1716 42.9219 52.0336 42.9219 50.6299C42.9219 49.2262 41.7839 48.0882 40.3802 48.0882C38.9765 48.0882 37.8385 49.2262 37.8385 50.6299Z" stroke="white" stroke-width="3"/>
</svg>
