<svg width="93" height="102" viewBox="0 0 93 102" fill="none" xmlns="http://www.w3.org/2000/svg">
<mask id="path-1-inside-1_321_102" fill="white">
<path fill-rule="evenodd" clip-rule="evenodd" d="M49.2622 98.8497L49.2064 98.859L48.8763 99.0217L48.7833 99.0403L48.7182 99.0217L48.388 98.8543C48.3384 98.8419 48.3012 98.8512 48.2764 98.8822L48.2578 98.9287L48.1788 100.919L48.202 101.012L48.2485 101.072L48.7321 101.416L48.8019 101.435L48.8577 101.416L49.3413 101.072L49.3971 100.998L49.4157 100.919L49.3366 98.9334C49.3242 98.8838 49.2994 98.8559 49.2622 98.8497ZM50.4898 98.3242L50.4247 98.3335L49.5691 98.766L49.5226 98.8125L49.5087 98.8636L49.5924 100.863L49.6156 100.919L49.6528 100.956L50.5875 101.384C50.6464 101.399 50.6913 101.387 50.7223 101.347L50.7409 101.282L50.5828 98.4265C50.5673 98.3676 50.5363 98.3335 50.4898 98.3242ZM47.1651 98.3335C47.1446 98.3211 47.1201 98.3171 47.0967 98.3223C47.0733 98.3275 47.0528 98.3415 47.0395 98.3614L47.0116 98.4265L46.8535 101.282C46.8566 101.337 46.883 101.375 46.9326 101.393L47.0023 101.384L47.937 100.951L47.9835 100.914L47.9974 100.863L48.0811 98.8636L48.0672 98.8078L48.0207 98.7613L47.1651 98.3335Z"/>
</mask>
<path d="M49.2622 98.8497L49.4924 97.4687L49.2622 97.4304L49.032 97.4687L49.2622 98.8497ZM49.2064 98.859L48.9762 97.478L48.7726 97.512L48.5874 97.6033L49.2064 98.859ZM48.8763 99.0217L49.1508 100.395L49.3307 100.359L49.4953 100.277L48.8763 99.0217ZM48.7833 99.0403L48.3987 100.386L48.725 100.48L49.0578 100.413L48.7833 99.0403ZM48.7182 99.0217L48.0851 100.27L48.2046 100.331L48.3336 100.368L48.7182 99.0217ZM48.388 98.8543L49.0211 97.6057L48.8805 97.5344L48.7276 97.4961L48.388 98.8543ZM48.2764 98.8822L47.1832 98.0077L47.0536 98.1697L46.9765 98.3623L48.2764 98.8822ZM48.2578 98.9287L46.9579 98.4088L46.8685 98.6325L46.8589 98.8732L48.2578 98.9287ZM48.1788 100.919L46.7799 100.863L46.7719 101.064L46.8206 101.258L48.1788 100.919ZM48.202 101.012L46.8438 101.351L46.9145 101.634L47.0923 101.866L48.202 101.012ZM48.2485 101.072L47.1388 101.926L47.2664 102.092L47.4369 102.213L48.2485 101.072ZM48.7321 101.416L47.9205 102.557L48.1268 102.704L48.3714 102.769L48.7321 101.416ZM48.8019 101.435L48.4412 102.788L48.8465 102.896L49.2446 102.763L48.8019 101.435ZM48.8577 101.416L49.3004 102.745L49.4988 102.678L49.6693 102.557L48.8577 101.416ZM49.3413 101.072L50.1529 102.213L50.3305 102.087L50.4613 101.912L49.3413 101.072ZM49.3971 100.998L50.5171 101.838L50.6928 101.604L50.7599 101.319L49.3971 100.998ZM49.4157 100.919L50.7785 101.24L50.8221 101.054L50.8146 100.863L49.4157 100.919ZM49.3366 98.9334L50.7355 98.8777L50.7298 98.7337L50.6948 98.5938L49.3366 98.9334ZM50.4898 98.3242L50.7644 96.9514L50.5293 96.9044L50.2919 96.9383L50.4898 98.3242ZM50.4247 98.3335L50.2268 96.9476L49.9988 96.9801L49.7932 97.0841L50.4247 98.3335ZM49.5691 98.766L48.9376 97.5165L48.7376 97.6176L48.5792 97.776L49.5691 98.766ZM49.5226 98.8125L48.5327 97.8225L48.2697 98.0855L48.1719 98.4442L49.5226 98.8125ZM49.5087 98.8636L48.158 98.4953L48.1008 98.705L48.1099 98.9222L49.5087 98.8636ZM49.5924 100.863L48.1936 100.922L48.204 101.171L48.3001 101.402L49.5924 100.863ZM49.6156 100.919L48.3233 101.457L48.4298 101.713L48.6256 101.909L49.6156 100.919ZM49.6528 100.956L48.6628 101.946L48.841 102.124L49.0702 102.229L49.6528 100.956ZM50.5875 101.384L50.0048 102.657L50.1145 102.707L50.2312 102.738L50.5875 101.384ZM50.7223 101.347L51.832 102.2L51.995 101.988L52.0685 101.731L50.7223 101.347ZM50.7409 101.282L52.0871 101.666L52.1518 101.44L52.1388 101.204L50.7409 101.282ZM50.5828 98.4265L51.9807 98.3491L51.9728 98.2075L51.9367 98.0702L50.5828 98.4265ZM47.1651 98.3335L46.4395 99.5308L46.4881 99.5603L46.539 99.5857L47.1651 98.3335ZM47.0395 98.3614L45.8751 97.5841L45.8035 97.6914L45.7527 97.8099L47.0395 98.3614ZM47.0116 98.4265L45.7248 97.875L45.6274 98.1023L45.6138 98.3491L47.0116 98.4265ZM46.8535 101.282L45.4557 101.204L45.4514 101.282L45.4557 101.359L46.8535 101.282ZM46.9326 101.393L46.441 102.704L46.7697 102.827L47.1177 102.781L46.9326 101.393ZM47.0023 101.384L47.1874 102.772L47.3977 102.744L47.5902 102.655L47.0023 101.384ZM47.937 100.951L48.5249 102.222L48.6789 102.151L48.8115 102.045L47.937 100.951ZM47.9835 100.914L48.858 102.008L49.2142 101.723L49.3342 101.283L47.9835 100.914ZM47.9974 100.863L49.3481 101.231L49.3896 101.079L49.3962 100.922L47.9974 100.863ZM48.0811 98.8636L49.4799 98.9222L49.4883 98.7202L49.4393 98.524L48.0811 98.8636ZM48.0672 98.8078L49.4254 98.4682L49.3313 98.0921L49.0571 97.8179L48.0672 98.8078ZM48.0207 98.7613L49.0106 97.7714L48.85 97.6107L48.6468 97.5091L48.0207 98.7613ZM49.2622 98.8497L49.032 97.4687L48.9762 97.478L49.2064 98.859L49.4367 100.24L49.4925 100.231L49.2622 98.8497ZM49.2064 98.859L48.5874 97.6033L48.2573 97.766L48.8763 99.0217L49.4953 100.277L49.8254 100.115L49.2064 98.859ZM48.8763 99.0217L48.6017 97.6489L48.5087 97.6675L48.7833 99.0403L49.0578 100.413L49.1508 100.395L48.8763 99.0217ZM48.7833 99.0403L49.1679 97.6942L49.1028 97.6756L48.7182 99.0217L48.3336 100.368L48.3987 100.386L48.7833 99.0403ZM48.7182 99.0217L49.3513 97.7731L49.0211 97.6057L48.388 98.8543L47.7549 100.103L48.0851 100.27L48.7182 99.0217ZM48.388 98.8543L48.7276 97.4961C48.5513 97.4521 48.2869 97.418 47.9835 97.4938C47.6564 97.5755 47.3799 97.7618 47.1832 98.0077L48.2764 98.8822L49.3696 99.7568C49.1978 99.9716 48.9523 100.138 48.6624 100.21C48.3962 100.277 48.1752 100.244 48.0485 100.213L48.388 98.8543ZM48.2764 98.8822L46.9765 98.3623L46.9579 98.4088L48.2578 98.9287L49.5577 99.4486L49.5763 99.4021L48.2764 98.8822ZM48.2578 98.9287L46.8589 98.8732L46.7799 100.863L48.1788 100.919L49.5777 100.974L49.6567 98.9843L48.2578 98.9287ZM48.1788 100.919L46.8206 101.258L46.8438 101.351L48.202 101.012L49.5602 100.672L49.537 100.579L48.1788 100.919ZM48.202 101.012L47.0923 101.866L47.1388 101.926L48.2485 101.072L49.3582 100.219L49.3117 100.158L48.202 101.012ZM48.2485 101.072L47.4369 102.213L47.9205 102.557L48.7321 101.416L49.5438 100.276L49.0602 99.9317L48.2485 101.072ZM48.7321 101.416L48.3714 102.769L48.4412 102.788L48.8019 101.435L49.1626 100.082L49.0928 100.064L48.7321 101.416ZM48.8019 101.435L49.2446 102.763L49.3004 102.745L48.8577 101.416L48.415 100.088L48.3592 100.107L48.8019 101.435ZM48.8577 101.416L49.6693 102.557L50.1529 102.213L49.3413 101.072L48.5296 99.9317L48.046 100.276L48.8577 101.416ZM49.3413 101.072L50.4613 101.912L50.5171 101.838L49.3971 100.998L48.277 100.158L48.2212 100.232L49.3413 101.072ZM49.3971 100.998L50.7599 101.319L50.7785 101.24L49.4157 100.919L48.0529 100.598L48.0343 100.677L49.3971 100.998ZM49.4157 100.919L50.8146 100.863L50.7355 98.8777L49.3366 98.9334L47.9377 98.9891L48.0168 100.975L49.4157 100.919ZM49.3366 98.9334L50.6948 98.5938C50.6046 98.2329 50.2799 97.6 49.4924 97.4687L49.2622 98.8497L49.0321 100.231C48.7386 100.182 48.4649 100.033 48.2623 99.8054C48.0796 99.5998 48.0078 99.3903 47.9784 99.2729L49.3366 98.9334ZM50.4898 98.3242L50.2919 96.9383L50.2268 96.9476L50.4247 98.3335L50.6226 99.7195L50.6877 99.7102L50.4898 98.3242ZM50.4247 98.3335L49.7932 97.0841L48.9376 97.5165L49.5691 98.766L50.2006 100.015L51.0562 99.583L50.4247 98.3335ZM49.5691 98.766L48.5792 97.776L48.5327 97.8225L49.5226 98.8125L50.5126 99.8024L50.5591 99.7559L49.5691 98.766ZM49.5226 98.8125L48.1719 98.4442L48.158 98.4953L49.5087 98.8636L50.8594 99.2319L50.8733 99.1808L49.5226 98.8125ZM49.5087 98.8636L48.1099 98.9222L48.1936 100.922L49.5924 100.863L50.9911 100.805L50.9074 98.8051L49.5087 98.8636ZM49.5924 100.863L48.3001 101.402L48.3233 101.457L49.6156 100.919L50.9079 100.38L50.8847 100.325L49.5924 100.863ZM49.6156 100.919L48.6256 101.909L48.6628 101.946L49.6528 100.956L50.6428 99.9662L50.6056 99.929L49.6156 100.919ZM49.6528 100.956L49.0702 102.229L50.0048 102.657L50.5875 101.384L51.1701 100.111L50.2355 99.6831L49.6528 100.956ZM50.5875 101.384L50.2312 102.738C50.4283 102.79 50.7147 102.825 51.0376 102.736C51.3801 102.641 51.6488 102.438 51.832 102.2L50.7223 101.347L49.6126 100.493C49.7648 100.295 49.9956 100.119 50.2931 100.037C50.5711 99.96 50.8055 99.9937 50.9438 100.03L50.5875 101.384ZM50.7223 101.347L52.0685 101.731L52.0871 101.666L50.7409 101.282L49.3948 100.897L49.3762 100.962L50.7223 101.347ZM50.7409 101.282L52.1388 101.204L51.9807 98.3491L50.5828 98.4265L49.185 98.5039L49.3431 101.359L50.7409 101.282ZM50.5828 98.4265L51.9367 98.0702C51.8312 97.6692 51.492 97.0969 50.7644 96.9514L50.4898 98.3242L50.2153 99.697C49.9543 99.6449 49.704 99.5096 49.5121 99.2986C49.3352 99.104 49.2608 98.9039 49.2289 98.7828L50.5828 98.4265ZM47.1651 98.3335L47.8907 97.1362C47.5615 96.9368 47.1683 96.8722 46.793 96.9556L47.0967 98.3223L47.4004 99.6889C47.0719 99.762 46.7276 99.7054 46.4395 99.5308L47.1651 98.3335ZM47.0967 98.3223L46.793 96.9556C46.4176 97.039 46.0887 97.2641 45.8751 97.5841L47.0395 98.3614L48.2039 99.1387C48.0169 99.4189 47.729 99.6159 47.4004 99.6889L47.0967 98.3223ZM47.0395 98.3614L45.7527 97.8099L45.7248 97.875L47.0116 98.4265L48.2984 98.9781L48.3263 98.913L47.0395 98.3614ZM47.0116 98.4265L45.6138 98.3491L45.4557 101.204L46.8535 101.282L48.2514 101.359L48.4095 98.5039L47.0116 98.4265ZM46.8535 101.282L45.4557 101.359C45.4685 101.591 45.5366 101.883 45.7332 102.161C45.9332 102.443 46.1976 102.613 46.441 102.704L46.9326 101.393L47.4241 100.082C47.618 100.155 47.8443 100.297 48.018 100.542C48.1883 100.782 48.2416 101.028 48.2514 101.204L46.8535 101.282ZM46.9326 101.393L47.1177 102.781L47.1874 102.772L47.0023 101.384L46.8172 99.9962L46.7475 100.006L46.9326 101.393ZM47.0023 101.384L47.5902 102.655L48.5249 102.222L47.937 100.951L47.3491 99.6809L46.4144 100.113L47.0023 101.384ZM47.937 100.951L48.8115 102.045L48.858 102.008L47.9835 100.914L47.1089 99.821L47.0624 99.8582L47.937 100.951ZM47.9835 100.914L49.3342 101.283L49.3481 101.231L47.9974 100.863L46.6467 100.495L46.6328 100.546L47.9835 100.914ZM47.9974 100.863L49.3962 100.922L49.4799 98.9222L48.0811 98.8636L46.6823 98.8051L46.5986 100.805L47.9974 100.863ZM48.0811 98.8636L49.4393 98.524L49.4254 98.4682L48.0672 98.8078L46.709 99.1474L46.7229 99.2032L48.0811 98.8636ZM48.0672 98.8078L49.0571 97.8179L49.0106 97.7714L48.0207 98.7613L47.0307 99.7513L47.0772 99.7978L48.0672 98.8078ZM48.0207 98.7613L48.6468 97.5091L47.7912 97.0813L47.1651 98.3335L46.539 99.5857L47.3946 100.014L48.0207 98.7613Z" fill="#F4FBE6" mask="url(#path-1-inside-1_321_102)"/>
<path d="M46.5 0.700195C71.7953 0.700195 92.2998 21.2047 92.2998 46.5C92.2998 71.7954 71.7954 92.2998 46.5 92.2998C21.2047 92.2998 0.700195 71.7953 0.700195 46.5C0.700196 21.2047 21.2047 0.700196 46.5 0.700195ZM46.5 8.59961C36.4483 8.59961 26.8078 12.5926 19.7002 19.7002C12.5926 26.8078 8.59961 36.4483 8.59961 46.5C8.59961 56.5517 12.5926 66.1922 19.7002 73.2998C26.8078 80.4074 36.4483 84.4004 46.5 84.4004C56.5517 84.4004 66.1922 80.4074 73.2998 73.2998C80.4074 66.1922 84.4004 56.5517 84.4004 46.5C84.4004 36.4483 80.4074 26.8078 73.2998 19.7002C66.1922 12.5926 56.5517 8.59961 46.5 8.59961ZM33.9502 56.5049C34.4682 56.4726 34.9877 56.5434 35.4785 56.7119C35.9079 56.8593 36.3082 57.0794 36.6621 57.3623L36.8105 57.4873H36.8115C39.3992 59.7721 42.7846 61.1504 46.5 61.1504C50.2148 61.1504 53.605 59.7725 56.1885 57.4873C56.9742 56.7937 58.0038 56.4407 59.0498 56.5059C60.0958 56.5711 61.0731 57.0492 61.7666 57.835C62.4602 58.6207 62.8132 59.6503 62.748 60.6963C62.6868 61.6768 62.2626 62.5967 61.5625 63.2793L61.4189 63.4131H61.418C57.4312 66.9398 52.3261 68.9323 47.0156 69.0449L46.501 69.0498H46.499C41.1762 69.0588 36.0287 67.1774 31.9707 63.75L31.582 63.4131L31.5811 63.4121L31.4385 63.2803C31.1138 62.9642 30.8451 62.5944 30.6455 62.1865C30.4175 61.7205 30.2833 61.2141 30.251 60.6963C30.2187 60.1783 30.2895 59.6588 30.458 59.168C30.6054 58.7385 30.8255 58.3383 31.1084 57.9844L31.2334 57.835C31.5767 57.4458 31.9938 57.1275 32.46 56.8994C32.926 56.6714 33.4324 56.5372 33.9502 56.5049ZM62.7754 28.5996C67.3673 28.5998 71.1035 31.3825 73.0938 35.0703L73.2812 35.4307C73.7387 36.3648 73.8094 37.4418 73.4775 38.4277C73.145 39.4155 72.4356 40.2322 71.5039 40.6992C70.5721 41.1661 69.4932 41.2457 68.5029 40.9209C67.5744 40.6163 66.7942 39.9791 66.3096 39.1357L66.2158 38.9648C65.3623 37.2621 63.9895 36.5002 62.7754 36.5C61.6407 36.5 60.3565 37.1705 59.4971 38.6611L59.3311 38.9697L59.3291 38.9746C59.0992 39.4423 58.7787 39.8597 58.3867 40.2031C57.9946 40.5466 57.538 40.8093 57.0439 40.9756C56.5499 41.1419 56.0278 41.2093 55.5078 41.1729C54.988 41.1364 54.4806 40.9971 54.0146 40.7637C53.5486 40.5301 53.1334 40.2063 52.793 39.8115C52.4526 39.4168 52.1928 38.9591 52.0303 38.4639C51.8678 37.9685 51.8053 37.4455 51.8457 36.9258C51.8811 36.4711 51.9949 36.0264 52.1816 35.6113L52.2666 35.4355L52.2686 35.4307C54.2057 31.5652 58.035 28.5996 62.7754 28.5996ZM30.2246 28.5996C34.9627 28.5996 38.7905 31.5621 40.7285 35.4248V35.4258C41.1882 36.3611 41.2601 37.44 40.9277 38.4277C40.5952 39.4156 39.885 40.2323 38.9531 40.6992C38.0215 41.166 36.9433 41.2456 35.9531 40.9209C35.0245 40.6163 34.2434 39.9792 33.7588 39.1357L33.666 38.9648C32.8124 37.2619 31.4388 36.5 30.2246 36.5C29.0157 36.5002 27.638 37.2615 26.7842 38.9648C26.31 39.893 25.4874 40.596 24.4971 40.9209C23.5068 41.2457 22.4279 41.1661 21.4961 40.6992C20.5644 40.2322 19.855 39.4155 19.5225 38.4277C19.1905 37.4415 19.2609 36.364 19.7188 35.4297C21.651 31.5653 25.484 28.5998 30.2246 28.5996Z" fill="#0A0814" stroke="#F4FBE6" stroke-width="1.4"/>
</svg>
